<mxfile host="app.diagrams.net" modified="2024-05-25T21:15:35.452Z" agent="Mozilla/5.0 (Windows NT 10.0; Win64; x64) AppleWebKit/537.36 (KHTML, like Gecko) Chrome/125.0.0.0 Safari/537.36" version="24.2.2" etag="hgG2OsUTI3niAZJlHsxA" type="device">
  <diagram name="Page-1" id="Rdyy5AU9boO1fGuf9hoA">
    <mxGraphModel dx="880" dy="434" grid="1" gridSize="10" guides="1" tooltips="1" connect="1" arrows="1" fold="1" page="1" pageScale="1" pageWidth="827" pageHeight="1169" math="0" shadow="0">
      <root>
        <mxCell id="0" />
        <mxCell id="1" parent="0" />
        <mxCell id="h0l9JVYS9Mgj9HRo5y_n-1" value="" style="rounded=0;whiteSpace=wrap;html=1;dashed=1;fillColor=none;strokeColor=#FFFFFF;" parent="1" vertex="1">
          <mxGeometry width="560" height="520" as="geometry" />
        </mxCell>
        <mxCell id="h0l9JVYS9Mgj9HRo5y_n-15" value="AWS Cloud" style="points=[[0,0],[0.25,0],[0.5,0],[0.75,0],[1,0],[1,0.25],[1,0.5],[1,0.75],[1,1],[0.75,1],[0.5,1],[0.25,1],[0,1],[0,0.75],[0,0.5],[0,0.25]];outlineConnect=0;gradientColor=none;html=1;whiteSpace=wrap;fontSize=12;fontStyle=0;container=1;pointerEvents=0;collapsible=0;recursiveResize=0;shape=mxgraph.aws4.group;grIcon=mxgraph.aws4.group_aws_cloud_alt;strokeColor=#232F3E;fillColor=none;verticalAlign=top;align=left;spacingLeft=30;fontColor=#232F3E;dashed=0;" parent="1" vertex="1">
          <mxGeometry x="40" y="40" width="480" height="440" as="geometry" />
        </mxCell>
        <mxCell id="18" style="edgeStyle=none;html=1;rounded=0;enumerate=1;enumerateValue=1;" parent="h0l9JVYS9Mgj9HRo5y_n-15" source="7" target="11" edge="1">
          <mxGeometry relative="1" as="geometry">
            <Array as="points">
              <mxPoint x="161" y="160" />
            </Array>
          </mxGeometry>
        </mxCell>
        <mxCell id="19" style="edgeStyle=none;rounded=0;html=1;enumerate=1;enumerateValue=2;" parent="h0l9JVYS9Mgj9HRo5y_n-15" source="7" target="12" edge="1">
          <mxGeometry relative="1" as="geometry">
            <Array as="points">
              <mxPoint x="161" y="321" />
            </Array>
          </mxGeometry>
        </mxCell>
        <mxCell id="7" value="" style="sketch=0;outlineConnect=0;fontColor=#232F3E;gradientColor=none;fillColor=#4D27AA;strokeColor=none;dashed=0;verticalLabelPosition=bottom;verticalAlign=top;align=center;html=1;fontSize=12;fontStyle=0;aspect=fixed;pointerEvents=1;shape=mxgraph.aws4.glue_crawlers;" parent="h0l9JVYS9Mgj9HRo5y_n-15" vertex="1">
          <mxGeometry x="41" y="190" width="78" height="78" as="geometry" />
        </mxCell>
        <mxCell id="6" value="AWS Glue&lt;br&gt;Bronze Crawler" style="text;html=1;strokeColor=none;fillColor=none;align=center;verticalAlign=middle;whiteSpace=wrap;rounded=0;" parent="h0l9JVYS9Mgj9HRo5y_n-15" vertex="1">
          <mxGeometry x="41" y="268" width="78" height="51" as="geometry" />
        </mxCell>
        <mxCell id="11" value="" style="sketch=0;outlineConnect=0;fontColor=#232F3E;gradientColor=none;fillColor=#3F8624;strokeColor=none;dashed=0;verticalLabelPosition=bottom;verticalAlign=top;align=center;html=1;fontSize=12;fontStyle=0;aspect=fixed;pointerEvents=1;shape=mxgraph.aws4.bucket_with_objects;comic=0;" parent="h0l9JVYS9Mgj9HRo5y_n-15" vertex="1">
          <mxGeometry x="201" y="122" width="75" height="78" as="geometry" />
        </mxCell>
        <mxCell id="12" value="" style="sketch=0;outlineConnect=0;fontColor=#232F3E;gradientColor=none;fillColor=#4D27AA;strokeColor=none;dashed=0;verticalLabelPosition=bottom;verticalAlign=top;align=center;html=1;fontSize=12;fontStyle=0;aspect=fixed;pointerEvents=1;shape=mxgraph.aws4.glue_data_catalog;" parent="h0l9JVYS9Mgj9HRo5y_n-15" vertex="1">
          <mxGeometry x="201" y="282" width="72" height="78" as="geometry" />
        </mxCell>
        <mxCell id="14" value="AWS Glue Data Catalog" style="text;html=1;strokeColor=none;fillColor=none;align=center;verticalAlign=middle;whiteSpace=wrap;rounded=0;" parent="h0l9JVYS9Mgj9HRo5y_n-15" vertex="1">
          <mxGeometry x="201" y="360" width="78" height="40" as="geometry" />
        </mxCell>
        <mxCell id="16" value="Amazon Cloudwatch Logs" style="text;html=1;strokeColor=none;fillColor=none;align=center;verticalAlign=middle;whiteSpace=wrap;rounded=0;" parent="h0l9JVYS9Mgj9HRo5y_n-15" vertex="1">
          <mxGeometry x="361" y="123" width="78" height="52" as="geometry" />
        </mxCell>
        <mxCell id="15" value="Amazon S3 Bronze Bucket" style="text;html=1;strokeColor=none;fillColor=none;align=center;verticalAlign=middle;whiteSpace=wrap;rounded=0;" parent="h0l9JVYS9Mgj9HRo5y_n-15" vertex="1">
          <mxGeometry x="201" y="201" width="78" height="52" as="geometry" />
        </mxCell>
        <mxCell id="20" style="edgeStyle=none;html=1;rounded=0;enumerate=1;enumerateValue=%E2%88%9E;" parent="1" source="7" edge="1">
          <mxGeometry relative="1" as="geometry">
            <Array as="points">
              <mxPoint x="121" y="120" />
            </Array>
            <mxPoint x="400" y="120" as="targetPoint" />
          </mxGeometry>
        </mxCell>
        <mxCell id="IihwBZxc7i3QNd66d0M8-21" value="" style="sketch=0;outlineConnect=0;fontColor=#232F3E;gradientColor=none;fillColor=#E7157B;strokeColor=none;dashed=0;verticalLabelPosition=bottom;verticalAlign=top;align=center;html=1;fontSize=12;fontStyle=0;aspect=fixed;pointerEvents=1;shape=mxgraph.aws4.cloudwatch_logs;" vertex="1" parent="1">
          <mxGeometry x="400" y="90" width="80" height="59.49" as="geometry" />
        </mxCell>
      </root>
    </mxGraphModel>
  </diagram>
</mxfile>
